<svg width="12" height="15" viewBox="0 0 12 15" fill="none" xmlns="http://www.w3.org/2000/svg">
<path d="M9.74529 3.47875L10.714 2.51008L11.6566 3.45275L10.688 4.42141C11.6451 5.61952 12.1072 7.13866 11.9793 8.66683C11.8515 10.195 11.1433 11.6162 10.0003 12.6386C8.85728 13.6609 7.3662 14.2068 5.83328 14.1641C4.30036 14.1215 2.84196 13.4935 1.75761 12.4091C0.673248 11.3247 0.0452438 9.86634 0.00257003 8.33342C-0.0401037 6.8005 0.505792 5.30943 1.52814 4.16642C2.5505 3.02342 3.9717 2.31525 5.49987 2.18736C7.02804 2.05947 8.54718 2.52157 9.74529 3.47875ZM5.99996 12.8334C6.61279 12.8334 7.21963 12.7127 7.78581 12.4782C8.352 12.2437 8.86645 11.8999 9.29979 11.4666C9.73313 11.0332 10.0769 10.5188 10.3114 9.9526C10.5459 9.38642 10.6666 8.77958 10.6666 8.16675C10.6666 7.55391 10.5459 6.94708 10.3114 6.38089C10.0769 5.8147 9.73313 5.30026 9.29979 4.86692C8.86645 4.43358 8.352 4.08983 7.78581 3.85531C7.21963 3.62079 6.61279 3.50008 5.99996 3.50008C4.76228 3.50008 3.5753 3.99175 2.70013 4.86692C1.82496 5.74208 1.33329 6.92907 1.33329 8.16675C1.33329 9.40442 1.82496 10.5914 2.70013 11.4666C3.5753 12.3417 4.76228 12.8334 5.99996 12.8334ZM5.33329 4.83341H6.66663V8.83341H5.33329V4.83341ZM3.33329 0.166748H8.66663V1.50008H3.33329V0.166748Z" fill="#B92353"/>
</svg>
