<svg xmlns="http://www.w3.org/2000/svg" viewBox="0 0 64 64" xml:space="preserve"><path fill="#FAB400" d="M40.124 35.752 40 36v-7.522c0-.16-.015-.318-.018-.478h-.613a3.964 3.964 0 0 1-3.439-1.958 3.966 3.966 0 0 1-.072-3.958l2.153-3.947a27.989 27.989 0 0 0-2.713-5.192L32 8l-3.297 4.946A27.997 27.997 0 0 0 24 28.478V36l-.124-.248a26 26 0 0 0-11.628-11.628L12 24v16c0 11.046 8.954 20 20 20s20-8.954 20-20V28h-5.928a25.981 25.981 0 0 0-5.948 7.752z"/><path fill="#DC9600" d="M16 40V26.425a26.015 26.015 0 0 0-3.752-2.301L12 24v16c0 11.046 8.954 20 20 20 .675 0 1.342-.036 2-.101C23.894 58.895 16 50.37 16 40z"/><path fill="#FA6450" d="m32 36-5.951 15.301C24.422 55.487 27.509 60 32 60s7.578-4.513 5.95-8.699L32 36zM46.244 7.219l-8.631 15.823c-.727 1.333.238 2.958 1.756 2.958h17.262c1.518 0 2.483-1.625 1.756-2.958L49.756 7.219c-.758-1.39-2.754-1.39-3.512 0z"/><path fill="#DC4632" d="m38.98 23.042 8.63-15.823a1.955 1.955 0 0 1 1.073-.908c-.874-.315-1.931-.023-2.439.908l-8.631 15.823c-.727 1.333.238 2.958 1.756 2.958h1.366c-1.518 0-2.482-1.625-1.755-2.958z"/><path fill="#F0F0F0" d="M48 18a1 1 0 0 1-1-1v-4a1 1 0 0 1 2 0v4a1 1 0 0 1-1 1zM48 22a1 1 0 0 1 0-2 1 1 0 0 1 0 2z"/></svg>